<?xml version="1.0" standalone="no"?>
<!DOCTYPE svg PUBLIC "-//W3C//DTD SVG 20010904//EN"
 "http://www.w3.org/TR/2001/REC-SVG-20010904/DTD/svg10.dtd">
<svg version="1.0" xmlns="http://www.w3.org/2000/svg"
 width="200.000000pt" height="200.000000pt" viewBox="0 0 200.000000 200.000000"
 preserveAspectRatio="xMidYMid meet">

<g transform="translate(0.000000,200.000000) scale(0.100000,-0.100000)"
fill="#6e07f3" stroke="none">
<path d="M840 1220 c0 -5 7 -10 15 -10 8 0 15 5 15 10 0 6 -7 10 -15 10 -8 0
-15 -4 -15 -10z"/>
<path d="M358 1130 c-51 -58 -78 -74 -78 -47 0 8 9 22 20 32 24 22 26 43 4 52
-17 6 -104 -72 -104 -94 0 -19 29 -28 43 -14 16 16 27 14 27 -6 0 -10 -19 -37
-42 -60 -40 -41 -41 -44 -25 -60 16 -16 21 -14 87 52 46 46 73 66 80 59 6 -6
-14 -33 -60 -79 -69 -69 -85 -100 -54 -112 10 -3 29 8 54 32 45 44 68 30 25
-15 -30 -31 -28 -60 2 -60 10 0 45 27 78 60 33 33 63 60 68 60 4 0 5 -16 1
-35 -9 -52 18 -58 63 -12 46 45 40 72 -12 63 -19 -4 -35 -3 -35 2 0 4 18 26
40 47 42 41 51 71 24 82 -11 4 -41 -19 -98 -76 -45 -44 -85 -81 -89 -81 -19 0
-2 29 44 76 34 35 50 58 46 68 -7 19 -38 21 -55 4 -8 -8 -15 -9 -22 -2 -7 7 3
23 30 49 46 45 52 75 16 75 -18 0 -40 -17 -78 -60z"/>
<path d="M690 1100 c0 -40 4 -70 10 -70 6 0 10 20 10 45 0 56 29 92 60 75 16
-9 20 -21 20 -65 0 -30 5 -55 10 -55 14 0 12 114 -2 128 -7 7 -24 12 -38 12
-14 0 -31 -5 -38 -12 -9 -9 -12 -9 -12 0 0 7 -4 12 -10 12 -6 0 -10 -30 -10
-70z"/>
<path d="M840 1100 c0 -40 4 -70 10 -70 6 0 10 30 10 70 0 40 -4 70 -10 70 -6
0 -10 -30 -10 -70z"/>
<path d="M906 1154 c-32 -32 -28 -92 8 -116 17 -12 74 -9 81 3 10 16 -1 22
-22 11 -10 -6 -27 -6 -40 -1 -19 7 -23 16 -23 48 0 48 26 69 61 51 23 -13 35
-8 24 9 -10 17 -72 13 -89 -5z"/>
<path d="M1010 1100 c0 -54 3 -70 15 -70 10 0 15 15 17 58 3 50 6 57 26 60 12
2 22 8 22 13 0 13 -34 11 -48 -3 -9 -9 -12 -9 -12 0 0 7 -4 12 -10 12 -6 0
-10 -30 -10 -70z"/>
<path d="M1105 1159 c-11 -16 0 -20 27 -10 28 10 58 -2 58 -24 0 -10 -11 -15
-34 -15 -19 0 -42 -7 -50 -16 -19 -18 -19 -20 -6 -45 12 -22 59 -26 78 -7 9 9
12 9 12 0 0 -7 5 -12 10 -12 13 0 13 96 0 121 -8 14 -21 19 -50 19 -21 0 -42
-5 -45 -11z m81 -71 c9 -15 -32 -49 -51 -41 -18 6 -20 39 -2 46 22 9 46 7 53
-5z"/>
<path d="M1240 1098 c0 -39 4 -68 10 -68 6 0 10 25 10 55 0 42 4 56 18 64 34
18 52 -5 52 -64 0 -30 5 -55 10 -55 6 0 10 22 10 49 0 46 17 81 39 81 19 0 31
-29 31 -77 0 -30 4 -53 10 -53 7 0 10 23 8 61 -4 74 -19 90 -68 72 -18 -7 -32
-7 -36 -2 -3 5 -25 8 -50 7 l-44 -1 0 -69z"/>
<path d="M489 1134 c-11 -14 -10 -18 6 -30 16 -12 21 -12 34 0 12 12 12 18 1
30 -16 20 -24 20 -41 0z"/>
</g>
</svg>
